<svg width="169" height="169" viewBox="0 0 169 169" fill="none" xmlns="http://www.w3.org/2000/svg">
<g id="O">
<g id="circle">
<mask id="path-1-inside-1_0_1" fill="white">
<path fill-rule="evenodd" clip-rule="evenodd" d="M85 154C123.66 154 155 122.66 155 84C155 45.3401 123.66 14 85 14C46.3401 14 15 45.3401 15 84C15 122.66 46.3401 154 85 154ZM84.5 142C116.256 142 142 116.256 142 84.5C142 52.7436 116.256 27 84.5 27C52.7436 27 27 52.7436 27 84.5C27 116.256 52.7436 142 84.5 142Z"/>
</mask>
<path fill-rule="evenodd" clip-rule="evenodd" d="M85 154C123.66 154 155 122.66 155 84C155 45.3401 123.66 14 85 14C46.3401 14 15 45.3401 15 84C15 122.66 46.3401 154 85 154ZM84.5 142C116.256 142 142 116.256 142 84.5C142 52.7436 116.256 27 84.5 27C52.7436 27 27 52.7436 27 84.5C27 116.256 52.7436 142 84.5 142Z" fill="#EA580C"/>
<path d="M154 84C154 122.108 123.108 153 85 153V155C124.212 155 156 123.212 156 84H154ZM85 15C123.108 15 154 45.8924 154 84H156C156 44.7878 124.212 13 85 13V15ZM16 84C16 45.8924 46.8924 15 85 15V13C45.7878 13 14 44.7878 14 84H16ZM85 153C46.8924 153 16 122.108 16 84H14C14 123.212 45.7878 155 85 155V153ZM141 84.5C141 115.704 115.704 141 84.5 141V143C116.809 143 143 116.809 143 84.5H141ZM84.5 28C115.704 28 141 53.2959 141 84.5H143C143 52.1913 116.809 26 84.5 26V28ZM28 84.5C28 53.2959 53.2959 28 84.5 28V26C52.1913 26 26 52.1913 26 84.5H28ZM84.5 141C53.2959 141 28 115.704 28 84.5H26C26 116.809 52.1913 143 84.5 143V141Z" fill="#EA580C" mask="url(#path-1-inside-1_0_1)"/>
</g>
</g>
</svg>
